<?xml version="1.0" standalone="no"?>
<!DOCTYPE svg PUBLIC "-//W3C//DTD SVG 20010904//EN"
 "http://www.w3.org/TR/2001/REC-SVG-20010904/DTD/svg10.dtd">
<svg version="1.0" xmlns="http://www.w3.org/2000/svg"
 width="147.000000pt" height="96.000000pt" viewBox="0 0 147.000000 96.000000"
 preserveAspectRatio="xMidYMid meet">

<g transform="translate(0.000000,96.000000) scale(0.100000,-0.100000)"
fill="#000000" stroke="none">
<path d="M310 481 l0 -241 45 0 45 0 0 100 0 100 31 0 c48 0 65 -15 129 -110
l61 -90 55 0 c54 0 54 0 43 22 -29 54 -109 166 -123 171 -23 9 -19 27 5 27 12
0 36 15 55 34 29 29 34 41 34 83 0 57 -28 109 -68 125 -15 6 -91 13 -169 16
l-143 5 0 -242z m265 134 c29 -28 31 -42 9 -73 -14 -20 -24 -22 -100 -22 l-84
0 0 60 0 60 75 0 c67 0 79 -3 100 -25z"/>
<path d="M819 709 c-36 -14 -60 -69 -29 -69 4 0 12 11 18 25 20 44 92 29 92
-18 0 -11 -29 -49 -65 -84 -36 -35 -65 -70 -65 -78 0 -12 17 -15 80 -15 64 0
80 3 80 15 0 12 -14 15 -62 15 l-61 0 61 58 c45 42 62 64 62 84 0 53 -57 87
-111 67z"/>
<path d="M1007 631 c-31 -44 -57 -84 -57 -90 0 -7 22 -11 55 -11 54 0 55 0 55
-30 0 -20 5 -30 15 -30 10 0 15 10 15 30 0 20 5 30 15 30 8 0 15 4 15 9 0 5
-7 11 -15 15 -11 4 -15 23 -15 81 0 56 -3 75 -13 75 -8 0 -39 -36 -70 -79z
m49 -67 c-5 -14 -66 -20 -66 -7 0 3 15 29 33 57 l32 51 3 -44 c2 -24 1 -50 -2
-57z"/>
<path d="M734 442 c13 -21 79 -50 144 -62 49 -10 75 -10 125 0 58 11 163 58
153 68 -3 2 -35 -6 -72 -18 -106 -36 -229 -30 -338 15 -14 6 -17 5 -12 -3z"/>
</g>
</svg>
